<svg id="ac356da0-b129-4ca5-aecc-4700531dd101" data-name="Layer 1" width="1129" height="663" viewBox="0 0 1129 663" xmlns="http://www.w3.org/2000/svg">
    <defs></defs>
    <title>docu_tree</title>
    <circle cx="321" cy="321" r="321" fill="#f2f2f2"></circle>
    <ellipse cx="559" cy="635.49998" rx="514" ry="27.50002" fill="#3f3d56"></ellipse>
    <ellipse cx="558" cy="627" rx="460" ry="22" opacity="0.2"></ellipse>
    <rect x="131" y="152.5" width="840" height="50" fill="#3f3d56"></rect>
    <path d="M166.5,727.3299A21.67009,21.67009,0,0,0,188.1701,749H984.8299A21.67009,21.67009,0,0,0,1006.5,727.3299V296h-840Z" transform="translate(-35.5 -118.5)" fill="#3f3d56"></path>
    <path d="M984.8299,236H188.1701A21.67009,21.67009,0,0,0,166.5,257.6701V296h840V257.6701A21.67009,21.67009,0,0,0,984.8299,236Z" transform="translate(-35.5 -118.5)" fill="#3f3d56"></path>
    <path d="M984.8299,236H188.1701A21.67009,21.67009,0,0,0,166.5,257.6701V296h840V257.6701A21.67009,21.67009,0,0,0,984.8299,236Z" transform="translate(-35.5 -118.5)" opacity="0.2"></path>
    <circle cx="181" cy="147.5" r="13" fill="#3f3d56"></circle>
    <circle cx="217" cy="147.5" r="13" fill="#3f3d56"></circle>
    <circle cx="253" cy="147.5" r="13" fill="#3f3d56"></circle>
    <rect x="168" y="213.5" width="337" height="386" rx="5.33505" fill="#606060"></rect>
    <rect x="603" y="272.5" width="284" height="22" rx="5.47638" fill="#2e8555"></rect>
    <rect x="537" y="352.5" width="416" height="15" rx="5.47638" fill="#2e8555"></rect>
    <rect x="537" y="396.5" width="416" height="15" rx="5.47638" fill="#2e8555"></rect>
    <rect x="537" y="440.5" width="416" height="15" rx="5.47638" fill="#2e8555"></rect>
    <rect x="537" y="484.5" width="416" height="15" rx="5.47638" fill="#2e8555"></rect>
    <rect x="865" y="552.5" width="88" height="26" rx="7.02756" fill="#3ecc5f"></rect>
    <path d="M981.6885,395.8592a91.01343,91.01343,0,0,0,19.56129,56.51431,91.40575,91.40575,0,1,0,143.68892,0C1157.18982,436.82067,981.6885,385.60008,981.6885,395.8592Z" transform="translate(-35.5 -118.5)" opacity="0.1"></path>
    <g transform="matrix(0.808145, 0, 0, 0.808145, 71.036064, 96.402222)" style="">
        <path d="M 462.562 383.716 C 462.562 457.762 402.536 517.792 328.485 517.792 C 254.439 517.792 194.409 457.762 194.409 383.716 C 194.409 309.665 254.439 249.639 328.485 249.639 C 402.536 249.639 462.562 309.665 462.562 383.716 Z" style="fill: rgb(226, 226, 226);"></path>
        <path d="M 328.048 371.991 L 240.865 371.991 L 240.865 352.259 L 328.048 352.259 L 328.048 371.991 Z M 328.048 415.749 L 240.865 415.749 L 240.865 396.054 L 328.048 396.054 L 328.048 415.749 Z M 416.106 393.377 L 342.971 440.758 L 342.971 415.579 L 393.194 384.105 L 393.194 383.363 L 342.971 351.886 L 342.971 326.673 L 416.106 374.053 L 416.106 393.377 Z" style="white-space: pre; fill: rgb(62, 164, 179);"></path>
    </g>
</svg>